<!-- tree-logo.svg -->
<svg xmlns="http://www.w3.org/2000/svg" viewBox="0 0 24 24" width="100" height="100">
  <path d="M12 2C10.343 2 9 3.343 9 5c0 .86.236 1.655.644 2.33C9.122 8.762 9 9.367 9 10v1.086C7.815 11.572 6 13.34 6 15.5V16h12v-0.5c0-2.16-1.815-3.928-3-4.414V10c0-.633-.122-1.238-.644-1.67C12.236 6.655 12 5.86 12 5c0-1.657-1.343-3-3-3zM5 16v-0.5c0-1.228.54-2.352 1.379-3.137A4.986 4.986 0 0111 12h2a4.986 4.986 0 014.621 2.363C17.46 13.648 18 14.772 18 16V16H5zm7-8c-.553 0-1 .447-1 1s.447 1 1 1 1-.447 1-1-.447-1-1-1zm0 4c-.553 0-1 .447-1 1s.447 1 1 1 1-.447 1-1-.447-1-1-1z"/>
</svg>
